<svg id="Software" xmlns="http://www.w3.org/2000/svg" xmlns:xlink="http://www.w3.org/1999/xlink" width="275" height="275" viewBox="0 0 275 275"><defs><linearGradient id="N300" x1="44.6" y1="187.84" x2="204.88" y2="187.84" gradientUnits="userSpaceOnUse"><stop offset="0" stop-color="#6c798f"/><stop offset="1" stop-color="#6c798f" stop-opacity="0.1"/></linearGradient><linearGradient id="linear-gradient" x1="18.72" y1="207.61" x2="123.12" y2="207.61" gradientUnits="userSpaceOnUse"><stop offset="0" stop-color="#99c1ff" stop-opacity="0"/><stop offset="0.01" stop-color="#93beff" stop-opacity="0.04"/><stop offset="0.05" stop-color="#78adff" stop-opacity="0.22"/><stop offset="0.09" stop-color="#5e9eff" stop-opacity="0.38"/><stop offset="0.14" stop-color="#4790ff" stop-opacity="0.53"/><stop offset="0.2" stop-color="#3484ff" stop-opacity="0.66"/><stop offset="0.25" stop-color="#247aff" stop-opacity="0.77"/><stop offset="0.32" stop-color="#1672ff" stop-opacity="0.85"/><stop offset="0.4" stop-color="#0c6cff" stop-opacity="0.92"/><stop offset="0.49" stop-color="#0568ff" stop-opacity="0.97"/><stop offset="0.63" stop-color="#0166ff" stop-opacity="0.99"/><stop offset="1" stop-color="#0065ff"/></linearGradient><linearGradient id="linear-gradient-2" x1="18.72" y1="187.84" x2="123.12" y2="187.84" xlink:href="#linear-gradient"/><linearGradient id="linear-gradient-3" x1="18.72" y1="187.84" x2="123.12" y2="187.84" xlink:href="#linear-gradient"/></defs><title>Spot-ALL-Clipped-newlogo copy</title><path d="M255.26,185.39l-36.33-36.33a3.47,3.47,0,0,0-5.92,2.45v16.54H121.57v39.57H213v16.54a3.47,3.47,0,0,0,5.92,2.45l36.33-36.33A3.47,3.47,0,0,0,255.26,185.39Z" style="fill:#64e6a4"/><path d="M146.66,168.06a40.32,40.32,0,0,1-21.92,6.46v33.11h31.5a80.62,80.62,0,0,0,41-39.57Z" style="fill:url(#N300)"/><path d="M121.57,207.63V168.06A40.57,40.57,0,1,0,81,127.49H41.43a80.14,80.14,0,1,1,80.14,80.14Z" style="fill:#0065ff"/><path d="M201.7,127.49a80.14,80.14,0,0,0-159.85-8.26L28.47,118a3.06,3.06,0,0,0-2.62,5l30.56,36.62c1.08,1.3,3,1.47,3.4.39l36.62-30.56c3-1.75,1.93-5.15-.78-5.4l-14.38-1.3a40.57,40.57,0,1,1,40.29,45.27h1.55v39.53A80.21,80.21,0,0,0,201.7,127.49Z" style="fill:#0065ff"/><path d="M123.12,207.63v0c-.52,0-1,0-1.55,0Z" style="fill:url(#linear-gradient)"/><rect x="18.72" y="168.06" width="102.85" height="39.57" style="fill:url(#linear-gradient-2)"/><path d="M121.57,168.06v39.57c.52,0,1,0,1.55,0V168.06Z" style="fill:#0065ff"/><path d="M121.57,168.06v39.57c.52,0,1,0,1.55,0V168.06Z" style="fill:url(#linear-gradient-3)"/></svg>